# 3ds Max Wavefront OBJ Exporter v0.97b - (c)2007 guruware
# File Created: 25.07.2018 17:50:21

#
# object Box001
#

v  -0.9000 0.0000 1.5000
v  -1.0000 0.0000 1.4000
v  -1.0000 0.0000 0.2243
v  -0.2481 0.0000 0.2243
v  -0.2481 0.0000 1.5000
v  -0.2481 5.1626 1.5000
v  -0.9000 5.0548 1.5000
v  -1.0000 5.0490 1.4000
v  -1.0000 5.1626 0.2243
v  -1.0000 0.0000 -0.2476
v  -0.2481 0.0000 -0.2476
v  0.2644 0.0000 0.2243
v  0.2644 0.0000 1.5000
v  0.2644 5.1626 1.5000
v  -0.9146 5.1994 1.4099
v  -0.2471 5.3004 1.4074
v  -0.2372 5.6830 0.4706
v  -0.2393 5.6830 0.4698
v  -0.3698 5.6830 0.3477
v  -0.4258 5.6830 0.2395
v  -0.9193 5.3217 0.2264
v  -1.0000 5.1626 -0.2476
v  -1.0000 0.0000 -1.4000
v  -0.9000 0.0000 -1.5000
v  -0.2481 0.0000 -1.5000
v  0.2644 0.0000 -0.2476
v  1.0000 0.0000 0.2243
v  1.0000 0.0000 1.4000
v  0.9000 0.0000 1.5000
v  0.9000 5.0551 1.5000
v  0.2634 5.3004 1.4074
v  0.2534 5.6830 0.4679
v  0.2514 5.6830 0.4698
v  0.0913 5.6830 0.5347
v  -0.0791 5.6830 0.5347
v  -0.4550 5.6830 0.1832
v  -0.4846 5.6830 -0.0038
v  -0.4550 5.6830 -0.1908
v  -0.4171 5.6830 -0.2640
v  -0.9189 5.3211 -0.2499
v  -1.0000 5.0492 -1.4000
v  -0.9000 5.0548 -1.5000
v  -0.2481 5.1626 -1.5000
v  0.2644 0.0000 -1.5000
v  1.0000 0.0000 -0.2476
v  1.0000 5.1626 0.2243
v  1.0000 5.0490 1.4000
v  0.9150 5.1999 1.4100
v  0.9199 5.3225 0.2265
v  0.4380 5.6830 0.2395
v  0.3819 5.6830 0.3477
v  -0.3698 5.6830 -0.3553
v  -0.2393 5.6830 -0.4774
v  -0.2372 5.6830 -0.4782
v  -0.2471 5.3007 -1.4075
v  -0.9145 5.1994 -1.4099
v  0.2644 5.1626 -1.5000
v  0.9000 0.0000 -1.5000
v  1.0000 0.0000 -1.4000
v  1.0000 5.1626 -0.2476
v  0.9195 5.3219 -0.2499
v  0.4293 5.6830 -0.2640
v  0.4671 5.6830 -0.1908
v  0.4967 5.6830 -0.0038
v  0.4671 5.6830 0.1832
v  0.2534 5.6830 -0.4755
v  0.2634 5.3006 -1.4075
v  -0.0791 5.6830 -0.5423
v  0.0913 5.6830 -0.5423
v  0.2514 5.6830 -0.4774
v  0.9000 5.0551 -1.5000
v  1.0000 5.0492 -1.4000
v  0.9148 5.1999 -1.4100
v  0.3819 5.6830 -0.3553
v  0.4671 5.8336 -0.1908
v  0.4967 5.8336 -0.0038
v  0.3819 5.8336 -0.3553
v  0.4671 5.8336 0.1832
v  0.2514 5.8336 -0.4774
v  0.3819 5.8336 0.3477
v  0.0913 5.8336 -0.5423
v  -0.0791 5.8336 -0.5423
v  -0.2393 5.8336 -0.4774
v  -0.3698 5.8336 -0.3553
v  -0.4550 5.8336 -0.1908
v  -0.4846 5.8336 -0.0038
v  -0.4550 5.8336 0.1832
v  -0.3698 5.8336 0.3477
v  -0.2393 5.8336 0.4698
v  -0.0791 5.8336 0.5347
v  0.0913 5.8336 0.5347
v  0.2514 5.8336 0.4698
v  0.5162 5.8336 -0.2107
v  0.5490 5.8336 -0.0038
v  0.4219 5.8336 -0.3927
v  0.5162 5.8336 0.2031
v  0.2775 5.8336 -0.5278
v  0.1003 5.8336 -0.5997
v  -0.0882 5.8336 -0.5997
v  -0.2654 5.8336 -0.5278
v  -0.4098 5.8336 -0.3927
v  -0.5041 5.8336 -0.2107
v  -0.5368 5.8336 -0.0038
v  -0.5041 5.8336 0.2031
v  -0.4098 5.8336 0.3851
v  -0.2654 5.8336 0.5202
v  -0.0882 5.8336 0.5920
v  0.1003 5.8336 0.5920
v  0.2775 5.8336 0.5202
v  0.4219 5.8336 0.3851
v  0.5162 5.8595 -0.2107
v  0.5490 5.8595 -0.0038
v  0.4219 5.8595 -0.3927
v  0.5162 5.8595 0.2031
v  0.2775 5.8595 -0.5278
v  0.1003 5.8595 -0.5997
v  -0.0882 5.8595 -0.5997
v  -0.2654 5.8595 -0.5278
v  -0.4098 5.8595 -0.3927
v  -0.5041 5.8595 -0.2107
v  -0.5368 5.8595 -0.0038
v  -0.5041 5.8595 0.2031
v  -0.4098 5.8595 0.3851
v  -0.2654 5.8595 0.5202
v  -0.0882 5.8595 0.5920
v  0.1003 5.8595 0.5920
v  0.2775 5.8595 0.5202
v  0.4219 5.8595 0.3851
v  0.4754 5.8595 -0.1942
v  0.5055 5.8595 -0.0038
v  0.3886 5.8595 -0.3616
v  0.4754 5.8595 0.1865
v  0.2558 5.8595 -0.4858
v  0.0928 5.8595 -0.5519
v  -0.0806 5.8595 -0.5519
v  -0.2436 5.8595 -0.4858
v  -0.3765 5.8595 -0.3616
v  -0.4632 5.8595 -0.1942
v  -0.4933 5.8595 -0.0038
v  -0.4632 5.8595 0.1865
v  -0.3765 5.8595 0.3539
v  -0.2436 5.8595 0.4782
v  -0.0806 5.8595 0.5443
v  0.0928 5.8595 0.5443
v  0.2558 5.8595 0.4782
v  0.3886 5.8595 0.3539
v  0.4754 6.3471 -0.1942
v  0.5055 6.3471 -0.0038
v  0.3886 6.3471 -0.3616
v  0.4754 6.3471 0.1865
v  0.2558 6.3471 -0.4858
v  0.0928 6.3471 -0.5519
v  -0.0806 6.3471 -0.5519
v  -0.2436 6.3471 -0.4858
v  -0.3765 6.3471 -0.3616
v  -0.4632 6.3471 -0.1942
v  -0.4933 6.3471 -0.0038
v  -0.4632 6.3471 0.1865
v  -0.3765 6.3471 0.3539
v  -0.2436 6.3471 0.4782
v  -0.0806 6.3471 0.5443
v  0.0928 6.3471 0.5443
v  0.2558 6.3471 0.4782
v  0.3886 6.3471 0.3539
# 164 vertices

vn -0.2971 -0.6303 0.7173
vn -0.7173 -0.6302 0.2972
vn -0.7071 -0.7071 0.0000
vn 0.0000 -1.0000 -0.0000
vn 0.0000 -0.7071 0.7071
vn -0.0263 0.3051 0.9520
vn -0.3703 0.2197 0.9026
vn -0.9082 0.2111 0.3613
vn -0.9709 0.2391 0.0118
vn 0.0270 0.3056 0.9518
vn -0.4946 0.7351 0.4636
vn -0.0575 0.7798 0.6234
vn -0.3679 -0.2053 0.9069
vn -0.4006 -0.6683 0.6268
vn -0.5911 -0.6708 0.4479
vn -0.8044 0.4234 0.4167
vn -0.7586 0.6507 0.0342
vn -0.9705 0.2410 -0.0121
vn -0.7173 -0.6303 -0.2971
vn -0.2972 -0.6302 -0.7173
vn 0.0000 -0.7071 -0.7071
vn 0.7071 -0.7071 -0.0000
vn 0.7173 -0.6302 0.2972
vn 0.2971 -0.6303 0.7173
vn 0.3706 0.2187 0.9027
vn 0.0587 0.7803 0.6227
vn 0.1705 0.9684 0.1823
vn 0.4006 -0.6683 0.6268
vn 0.1428 -0.6664 0.7318
vn -0.1428 -0.6664 0.7318
vn -0.7028 -0.6728 0.2309
vn -0.7391 -0.6736 0.0000
vn -0.7028 -0.6728 -0.2309
vn -0.8031 0.4266 -0.4160
vn -0.7550 0.6547 -0.0363
vn -0.9081 0.2116 -0.3615
vn -0.3703 0.2199 -0.9025
vn -0.0263 0.3045 -0.9522
vn 0.9716 0.2365 0.0116
vn 0.9086 0.2096 0.3612
vn 0.4967 0.7334 0.4641
vn 0.7636 0.6449 0.0340
vn 0.8064 0.4186 0.4178
vn 0.5911 -0.6708 0.4479
vn -0.5911 -0.6708 -0.4479
vn -0.4006 -0.6683 -0.6268
vn -0.0777 0.9784 -0.1915
vn -0.0577 0.7786 -0.6249
vn -0.4943 0.7351 -0.4641
vn 0.0269 0.3050 -0.9520
vn 0.2972 -0.6302 -0.7173
vn 0.7173 -0.6303 -0.2971
vn 0.9711 0.2385 -0.0120
vn 0.7600 0.6490 -0.0362
vn 0.8051 0.4218 -0.4171
vn 0.7028 -0.6728 -0.2309
vn 0.7391 -0.6736 0.0000
vn 0.7028 -0.6728 0.2309
vn 0.1715 0.9680 -0.1834
vn 0.0589 0.7791 -0.6242
vn -0.1428 -0.6664 -0.7318
vn 0.1428 -0.6664 -0.7318
vn 0.4006 -0.6683 -0.6268
vn 0.3706 0.2188 -0.9026
vn 0.9084 0.2101 -0.3614
vn 0.4964 0.7334 -0.4646
vn 0.5911 -0.6708 -0.4479
vn 0.6338 -0.7449 -0.2082
vn 0.6681 -0.7440 -0.0000
vn 0.5295 -0.7474 -0.4013
vn 0.6338 -0.7450 0.2082
vn 0.3558 -0.7505 -0.5569
vn 0.5296 -0.7474 0.4013
vn 0.1260 -0.7529 -0.6460
vn -0.1260 -0.7529 -0.6460
vn -0.3558 -0.7505 -0.5569
vn -0.5296 -0.7474 -0.4013
vn -0.6338 -0.7449 -0.2082
vn -0.6681 -0.7441 -0.0000
vn -0.6338 -0.7450 0.2082
vn -0.5296 -0.7474 0.4013
vn -0.3558 -0.7505 0.5569
vn -0.1260 -0.7529 0.6460
vn 0.1260 -0.7529 0.6460
vn 0.3558 -0.7505 0.5569
vn 0.7029 -0.6728 0.2309
vn -0.7028 -0.6729 -0.2309
vn -0.7391 -0.6736 -0.0000
vn -0.7028 -0.6729 0.2309
vn -0.5910 -0.6709 0.4479
vn 0.5910 -0.6709 0.4479
vn 0.7028 0.6729 -0.2309
vn 0.7391 0.6736 0.0000
vn 0.5910 0.6709 -0.4479
vn 0.7028 0.6729 0.2309
vn 0.4006 0.6683 -0.6268
vn 0.1428 0.6664 -0.7318
vn -0.1428 0.6664 -0.7318
vn -0.4006 0.6683 -0.6268
vn -0.5910 0.6709 -0.4479
vn -0.7029 0.6728 -0.2309
vn -0.7391 0.6736 -0.0000
vn -0.7028 0.6728 0.2309
vn -0.5911 0.6708 0.4479
vn -0.4006 0.6683 0.6268
vn -0.1428 0.6664 0.7318
vn 0.1427 0.6665 0.7317
vn 0.4006 0.6683 0.6268
vn 0.5911 0.6708 0.4479
vn 0.6339 0.7449 -0.2083
vn 0.6682 0.7440 -0.0000
vn 0.5296 0.7474 -0.4013
vn 0.6338 0.7449 0.2082
vn 0.3558 0.7505 -0.5569
vn 0.1260 0.7529 -0.6460
vn -0.1260 0.7529 -0.6460
vn -0.3558 0.7505 -0.5569
vn -0.5296 0.7474 -0.4013
vn -0.6338 0.7449 -0.2082
vn -0.6681 0.7440 -0.0000
vn -0.6338 0.7449 0.2082
vn -0.5295 0.7474 0.4012
vn -0.3559 0.7505 0.5568
vn -0.1260 0.7529 0.6460
vn 0.1260 0.7529 0.6460
vn 0.3558 0.7505 0.5569
vn 0.5296 0.7474 0.4013
vn 0.7028 0.6728 -0.2309
vn 0.5911 0.6708 -0.4479
vn -0.5911 0.6708 -0.4479
vn -0.7028 0.6728 -0.2309
vn -0.4006 0.6683 0.6269
vn -0.1427 0.6665 0.7317
vn 0.1428 0.6664 0.7318
vn 0.5910 0.6709 0.4479
# 135 vertex normals

vt 0.9557 0.0000 0.0000
vt 1.0000 0.0261 0.0000
vt 1.0000 0.3333 0.0000
vt 0.6667 0.3333 0.0000
vt 0.6667 0.0000 0.0000
vt 0.0443 0.0000 0.0000
vt 0.3333 0.0000 0.0000
vt 0.3333 0.9810 0.0000
vt 0.0167 0.9500 0.0000
vt 0.9739 0.0000 0.0000
vt 0.9739 0.9805 0.0000
vt 0.6667 0.9810 0.0000
vt 1.0000 0.6667 0.0000
vt 0.6667 0.6667 0.0000
vt 0.3333 0.3333 0.0000
vt 0.0217 0.0218 0.0000
vt 0.3333 0.0249 0.0000
vt 0.3333 0.2768 0.0000
vt 0.3324 0.2770 0.0000
vt 0.2719 0.3069 0.0000
vt 0.2460 0.3333 0.0000
vt 0.0346 0.3333 0.0000
vt 1.0000 0.9734 0.0000
vt 0.9557 1.0000 0.0000
vt 0.6667 1.0000 0.0000
vt 0.3333 0.6667 0.0000
vt -0.0000 0.3333 0.0000
vt -0.0000 0.0261 0.0000
vt 0.0453 0.0000 0.0000
vt 0.9547 0.0000 0.0000
vt 0.9833 0.9500 0.0000
vt 0.6667 0.0249 0.0000
vt 0.6667 0.2774 0.0000
vt 0.6653 0.2770 0.0000
vt 0.5565 0.2611 0.0000
vt 0.4407 0.2611 0.0000
vt 0.2325 0.3706 0.0000
vt 0.2188 0.4944 0.0000
vt 0.2325 0.6183 0.0000
vt 0.2500 0.6667 0.0000
vt 0.0348 0.6667 0.0000
vt 0.0266 0.0000 0.0000
vt 0.0266 0.9809 0.0000
vt 0.3333 1.0000 0.0000
vt -0.0000 0.6667 0.0000
vt 0.0261 0.0000 0.0000
vt 0.0261 0.9809 0.0000
vt 0.9802 0.0208 0.0000
vt 0.9650 0.3333 0.0000
vt 0.7540 0.3333 0.0000
vt 0.7275 0.3069 0.0000
vt 0.2719 0.6895 0.0000
vt 0.3324 0.7199 0.0000
vt 0.3333 0.7201 0.0000
vt 0.3333 0.9747 0.0000
vt 0.0217 0.9780 0.0000
vt 0.0453 1.0000 0.0000
vt -0.0000 0.9734 0.0000
vt 0.9647 0.6667 0.0000
vt 0.7499 0.6667 0.0000
vt 0.7678 0.6183 0.0000
vt 0.7818 0.4944 0.0000
vt 0.7678 0.3706 0.0000
vt 0.6667 0.7194 0.0000
vt 0.6667 0.9747 0.0000
vt 0.4407 0.7361 0.0000
vt 0.5565 0.7361 0.0000
vt 0.6653 0.7199 0.0000
vt 0.9734 0.0000 0.0000
vt 0.9734 0.9805 0.0000
vt 0.9802 0.9790 0.0000
vt 0.7275 0.6895 0.0000
vt 0.8056 0.4333 1.0000
vt 0.8056 1.0000 1.0000
vt 0.7500 1.0000 1.0000
vt 0.7500 0.4333 1.0000
vt 0.8611 0.4333 1.0000
vt 0.8611 1.0000 1.0000
vt 0.8302 0.4333 1.0000
vt 0.6944 1.0000 1.0000
vt 0.6944 0.4333 1.0000
vt 0.9167 0.4333 1.0000
vt 0.9167 1.0000 1.0000
vt 0.9158 0.4333 1.0000
vt 0.6389 1.0000 1.0000
vt 0.6389 0.4333 1.0000
vt 0.6754 0.4333 1.0000
vt 0.9722 0.4333 1.0000
vt 0.9722 1.0000 1.0000
vt 0.0278 0.4333 1.0000
vt 0.0278 1.0000 1.0000
vt -0.0278 1.0000 1.0000
vt -0.0278 0.4333 1.0000
vt 0.0833 0.4333 1.0000
vt 0.0833 1.0000 1.0000
vt 0.0826 0.4333 1.0000
vt 0.1389 0.4333 1.0000
vt 0.1389 1.0000 1.0000
vt 0.1944 0.4333 1.0000
vt 0.1944 1.0000 1.0000
vt 0.1698 0.4333 1.0000
vt 0.2500 0.4333 1.0000
vt 0.2500 1.0000 1.0000
vt 0.3056 0.4333 1.0000
vt 0.3056 1.0000 1.0000
vt 0.3611 0.4333 1.0000
vt 0.3611 1.0000 1.0000
vt 0.3246 0.4333 1.0000
vt 0.4167 0.4333 1.0000
vt 0.4167 1.0000 1.0000
vt 0.4722 0.4333 1.0000
vt 0.4722 1.0000 1.0000
vt 0.4174 0.4333 1.0000
vt 0.5278 0.4333 1.0000
vt 0.5278 1.0000 1.0000
vt 0.5833 0.4333 1.0000
vt 0.5833 1.0000 1.0000
vt 0.5842 0.4333 1.0000
vt -0.0203 0.9834 0.0000
vt -0.0200 0.9485 0.0000
vt 0.9595 0.9910 0.0000
vt 0.9447 0.9108 0.0000
vt -0.0208 1.0067 0.0000
vt -0.0264 0.9698 0.0000
vt 0.9488 1.0051 0.0000
vt 0.9394 0.9518 0.0000
vt 0.3392 -0.0412 0.0000
vt 0.0067 -0.0479 0.0000
vt 0.9943 0.9787 0.0000
vt 0.9932 -0.0015 0.0000
vt -0.0355 0.0294 0.0000
vt -0.0350 0.3434 0.0000
vt 0.6669 -0.0693 0.0000
vt 0.3333 -0.0693 0.0000
vt -0.0672 0.3343 0.0000
vt -0.0671 0.6672 0.0000
vt 0.0069 -0.0015 0.0000
vt 0.0058 0.9795 0.0000
vt 0.9960 -0.0515 0.0000
vt 0.6608 -0.0430 0.0000
vt -0.0365 0.6561 0.0000
vt -0.0378 0.9706 0.0000
vt 1.0059 0.9574 0.0000
vt 0.9913 -0.0056 0.0000
vt 0.0068 1.0488 0.0000
vt 0.3395 1.0418 0.0000
vt 1.0359 0.3449 0.0000
vt 1.0375 0.0312 0.0000
vt 0.3333 1.0692 0.0000
vt 0.6669 1.0692 0.0000
vt 1.0671 0.6672 0.0000
vt 1.0672 0.3343 0.0000
vt 0.6605 1.0436 0.0000
vt 0.9959 1.0525 0.0000
vt 0.9935 0.9787 0.0000
vt 0.9924 -0.0015 0.0000
vt 1.0398 0.9687 0.0000
vt 1.0376 0.6547 0.0000
# 158 texture coords

o Box001
g Box001
s 1
f 1/1/1 2/2/2 3/3/3 4/4/4 5/5/5 
f 1/6/1 5/7/5 6/8/6 7/9/7 
f 3/5/3 2/10/2 8/11/8 9/12/9 
f 3/3/3 10/13/3 11/14/4 4/4/4 
f 5/5/5 4/4/4 12/15/4 13/7/5 
f 5/7/5 13/5/5 14/12/10 6/8/6 
f 15/16/11 16/17/12 17/18/13 18/19/14 19/20/15 20/21/16 21/22/17 
f 10/7/3 3/5/3 9/12/9 22/8/18 
f 10/13/3 23/23/19 24/24/20 25/25/21 11/14/4 
f 4/4/4 11/14/4 26/26/4 12/15/4 
f 13/7/5 12/15/4 27/27/22 28/28/23 29/29/24 
f 13/5/5 29/30/24 30/31/25 14/12/10 
f 16/17/12 31/32/26 32/33/27 33/34/28 34/35/29 35/36/30 17/18/13 
f 21/22/17 20/21/16 36/37/31 37/38/32 38/39/33 39/40/34 40/41/35 
f 23/42/19 10/7/3 22/8/18 41/43/36 
f 25/5/21 24/1/20 42/31/37 43/12/38 
f 11/14/4 25/25/21 44/44/21 26/26/4 
f 12/15/4 26/26/4 45/45/22 27/27/22 
f 28/46/23 27/7/22 46/8/39 47/47/40 
f 31/32/26 48/48/41 49/49/42 50/50/43 51/51/44 32/33/27 
f 40/41/35 39/40/34 52/52/45 53/53/46 54/54/47 55/55/48 56/56/49 
f 44/7/21 25/5/21 43/12/38 57/8/50 
f 26/26/4 44/44/21 58/57/51 59/58/52 45/45/22 
f 27/7/22 45/5/22 60/12/53 46/8/39 
f 50/50/43 49/49/42 61/59/54 62/60/55 63/61/56 64/62/57 65/63/58 
f 66/64/59 67/65/60 55/55/48 54/54/47 68/66/61 69/67/62 70/68/63 
f 58/29/51 44/7/21 57/8/50 71/9/64 
f 45/5/22 59/69/52 72/70/65 60/12/53 
f 62/60/55 61/59/54 73/71/66 67/65/60 66/64/59 74/72/67 
f 63/73/56 75/74/68 76/75/69 64/76/57 
f 74/77/67 77/78/70 75/74/68 63/73/56 62/79/55 
f 64/76/57 76/75/69 78/80/71 65/81/58 
f 70/82/63 79/83/72 77/78/70 74/77/67 66/84/59 
f 65/81/58 78/80/71 80/85/73 51/86/44 50/87/43 
f 69/88/62 81/89/74 79/83/72 70/82/63 
f 68/90/61 82/91/75 81/92/74 69/93/62 
f 53/94/46 83/95/76 82/91/75 68/90/61 54/96/47 
f 52/97/45 84/98/77 83/95/76 53/94/46 
f 38/99/33 85/100/78 84/98/77 52/97/45 39/101/34 
f 37/102/32 86/103/79 85/100/78 38/99/33 
f 36/104/31 87/105/80 86/103/79 37/102/32 
f 19/106/15 88/107/81 87/105/80 36/104/31 20/108/16 
f 18/109/14 89/110/82 88/107/81 19/106/15 
f 35/111/30 90/112/83 89/110/82 18/109/14 17/113/13 
f 34/114/29 91/115/84 90/112/83 35/111/30 
f 33/116/28 92/117/85 91/115/84 34/114/29 
f 51/86/44 80/85/73 92/117/85 33/116/28 32/118/27 
f 76/75/69 75/74/68 93/74/56 94/75/57 
f 75/74/68 77/78/70 95/78/67 93/74/56 
f 78/80/71 76/75/69 94/75/57 96/80/86 
f 77/78/70 79/83/72 97/83/63 95/78/67 
f 79/83/72 81/89/74 98/89/62 97/83/63 
f 81/92/74 82/91/75 99/91/61 98/92/62 
f 82/91/75 83/95/76 100/95/46 99/91/61 
f 83/95/76 84/98/77 101/98/45 100/95/46 
f 84/98/77 85/100/78 102/100/87 101/98/45 
f 85/100/78 86/103/79 103/103/88 102/100/87 
f 86/103/79 87/105/80 104/105/89 103/103/88 
f 87/105/80 88/107/81 105/107/90 104/105/89 
f 88/107/81 89/110/82 106/110/14 105/107/90 
f 89/110/82 90/112/83 107/112/30 106/110/14 
f 90/112/83 91/115/84 108/115/29 107/112/30 
f 91/115/84 92/117/85 109/117/28 108/115/29 
f 92/117/85 80/85/73 110/85/91 109/117/28 
f 80/85/73 78/80/71 96/80/86 110/85/91 
f 94/75/57 93/74/56 111/74/92 112/75/93 
f 93/74/56 95/78/67 113/78/94 111/74/92 
f 96/80/86 94/75/57 112/75/93 114/80/95 
f 95/78/67 97/83/63 115/83/96 113/78/94 
f 97/83/63 98/89/62 116/89/97 115/83/96 
f 98/92/62 99/91/61 117/91/98 116/92/97 
f 99/91/61 100/95/46 118/95/99 117/91/98 
f 100/95/46 101/98/45 119/98/100 118/95/99 
f 101/98/45 102/100/87 120/100/101 119/98/100 
f 102/100/87 103/103/88 121/103/102 120/100/101 
f 103/103/88 104/105/89 122/105/103 121/103/102 
f 104/105/89 105/107/90 123/107/104 122/105/103 
f 105/107/90 106/110/14 124/110/105 123/107/104 
f 106/110/14 107/112/30 125/112/106 124/110/105 
f 107/112/30 108/115/29 126/115/107 125/112/106 
f 108/115/29 109/117/28 127/117/108 126/115/107 
f 109/117/28 110/85/91 128/85/109 127/117/108 
f 110/85/91 96/80/86 114/80/95 128/85/109 
f 112/75/93 111/74/92 129/74/110 130/75/111 
f 111/74/92 113/78/94 131/78/112 129/74/110 
f 114/80/95 112/75/93 130/75/111 132/80/113 
f 113/78/94 115/83/96 133/83/114 131/78/112 
f 115/83/96 116/89/97 134/89/115 133/83/114 
f 116/92/97 117/91/98 135/91/116 134/92/115 
f 117/91/98 118/95/99 136/95/117 135/91/116 
f 118/95/99 119/98/100 137/98/118 136/95/117 
f 119/98/100 120/100/101 138/100/119 137/98/118 
f 120/100/101 121/103/102 139/103/120 138/100/119 
f 121/103/102 122/105/103 140/105/121 139/103/120 
f 122/105/103 123/107/104 141/107/122 140/105/121 
f 123/107/104 124/110/105 142/110/123 141/107/122 
f 124/110/105 125/112/106 143/112/124 142/110/123 
f 125/112/106 126/115/107 144/115/125 143/112/124 
f 126/115/107 127/117/108 145/117/126 144/115/125 
f 127/117/108 128/85/109 146/85/127 145/117/126 
f 128/85/109 114/80/95 132/80/113 146/85/127 
f 130/75/111 129/74/110 147/74/128 148/75/93 
f 129/74/110 131/78/112 149/78/129 147/74/128 
f 132/80/113 130/75/111 148/75/93 150/80/95 
f 131/78/112 133/83/114 151/83/96 149/78/129 
f 133/83/114 134/89/115 152/89/97 151/83/96 
f 134/92/115 135/91/116 153/91/98 152/92/97 
f 135/91/116 136/95/117 154/95/99 153/91/98 
f 136/95/117 137/98/118 155/98/130 154/95/99 
f 137/98/118 138/100/119 156/100/131 155/98/130 
f 138/100/119 139/103/120 157/103/102 156/100/131 
f 139/103/120 140/105/121 158/105/103 157/103/102 
f 140/105/121 141/107/122 159/107/104 158/105/103 
f 141/107/122 142/110/123 160/110/132 159/107/104 
f 142/110/123 143/112/124 161/112/133 160/110/132 
f 143/112/124 144/115/125 162/115/134 161/112/133 
f 144/115/125 145/117/126 163/117/108 162/115/134 
f 145/117/126 146/85/127 164/85/135 163/117/108 
f 146/85/127 132/80/113 150/80/95 164/85/135 
f 147/74/128 149/78/129 151/83/96 152/89/97 153/91/98 154/95/99 155/98/130 156/100/131 157/103/102 158/105/103 159/107/104 160/110/132 161/112/133 162/115/134 163/117/108 164/85/135 150/80/95 148/75/93 
f 7/9/7 15/119/11 8/120/8 
f 30/31/25 47/121/40 48/122/41 
f 56/56/49 42/123/37 41/124/36 
f 73/71/66 72/125/65 71/126/64 
f 6/127/6 16/17/12 15/16/11 7/128/7 
f 7/129/7 8/11/8 2/10/2 1/130/1 
f 8/131/8 15/16/11 21/22/17 9/132/9 
f 14/133/10 31/32/26 16/17/12 6/134/6 
f 9/135/9 21/22/17 40/41/35 22/136/18 
f 29/137/24 28/46/23 47/47/40 30/138/25 
f 30/139/25 48/48/41 31/32/26 14/140/10 
f 22/141/18 40/41/35 56/56/49 41/142/36 
f 41/143/36 42/31/37 24/1/20 23/144/19 
f 42/145/37 56/56/49 55/55/48 43/146/38 
f 46/147/39 49/49/42 48/48/41 47/148/40 
f 43/149/38 55/55/48 67/65/60 57/150/50 
f 60/151/53 61/59/54 49/49/42 46/152/39 
f 57/153/50 67/65/60 73/71/66 71/154/64 
f 71/155/64 72/70/65 59/69/52 58/156/51 
f 72/157/65 73/71/66 61/59/54 60/158/53 
# 136 polygons - 4 triangles

